<?xml version="1.0" encoding="UTF-8"?>
<svg xmlns="http://www.w3.org/2000/svg" xmlns:xlink="http://www.w3.org/1999/xlink" width="32px" height="32px" viewBox="0 0 32 32" version="1.1">
<defs>
<filter id="alpha" filterUnits="objectBoundingBox" x="0%" y="0%" width="100%" height="100%">
  <feColorMatrix type="matrix" in="SourceGraphic" values="0 0 0 0 1 0 0 0 0 1 0 0 0 0 1 0 0 0 1 0"/>
</filter>
<mask id="mask0">
  <g filter="url(#alpha)">
<rect x="0" y="0" width="32" height="32" style="fill:rgb(0%,0%,0%);fill-opacity:0.996078;stroke:none;"/>
  </g>
</mask>
<clipPath id="clip1">
  <rect x="0" y="0" width="32" height="32"/>
</clipPath>
<g id="surface5" clip-path="url(#clip1)">
<path style=" stroke:none;fill-rule:evenodd;fill:rgb(11.764706%,53.333333%,89.803922%);fill-opacity:1;" d="M 14.65625 1.96875 C 19.972656 1.675781 24.234375 3.632812 27.4375 7.84375 C 30.300781 12.203125 30.757812 16.804688 28.8125 21.65625 C 26.472656 26.492188 22.628906 29.253906 17.28125 29.9375 C 11.960938 30.261719 7.703125 28.3125 4.5 24.09375 C 1.636719 19.734375 1.179688 15.132812 3.125 10.28125 C 5.472656 5.441406 9.316406 2.671875 14.65625 1.96875 Z M 14.65625 1.96875 "/>
</g>
</defs>
<g id="surface1">
<use xlink:href="#surface5" mask="url(#mask0)"/>
<path style=" stroke:none;fill-rule:evenodd;fill:rgb(97.647059%,97.647059%,97.647059%);fill-opacity:1;" d="M 21.03125 7.34375 C 21.257812 7.324219 21.464844 7.375 21.65625 7.5 C 22.648438 8.46875 23.617188 9.460938 24.5625 10.46875 C 24.605469 10.59375 24.605469 10.71875 24.5625 10.84375 C 21.855469 13.613281 19.125 16.363281 16.375 19.09375 C 16.332031 19.136719 16.332031 19.175781 16.375 19.21875 C 16.957031 19.800781 17.542969 20.386719 18.125 20.96875 C 18.324219 21.519531 18.125 21.800781 17.53125 21.8125 C 14.90625 22.25 12.28125 22.6875 9.65625 23.125 C 9.398438 23.179688 9.148438 23.15625 8.90625 23.0625 C 8.867188 23.015625 8.835938 22.964844 8.8125 22.90625 C 8.769531 22.636719 8.769531 22.363281 8.8125 22.09375 C 9.246094 19.355469 9.722656 16.625 10.25 13.90625 C 10.460938 13.695312 10.699219 13.664062 10.96875 13.8125 C 11.550781 14.394531 12.136719 14.980469 12.71875 15.5625 C 12.761719 15.605469 12.800781 15.605469 12.84375 15.5625 C 15.585938 12.832031 18.316406 10.089844 21.03125 7.34375 Z M 21.03125 7.34375 "/>
</g>
</svg>
