<?xml version="1.0" encoding="UTF-8"?>
<svg xmlns="http://www.w3.org/2000/svg" xmlns:xlink="http://www.w3.org/1999/xlink" width="32px" height="32px" viewBox="0 0 32 32" version="1.1">
<defs>
<filter id="alpha" filterUnits="objectBoundingBox" x="0%" y="0%" width="100%" height="100%">
  <feColorMatrix type="matrix" in="SourceGraphic" values="0 0 0 0 1 0 0 0 0 1 0 0 0 0 1 0 0 0 1 0"/>
</filter>
<mask id="mask0">
  <g filter="url(#alpha)">
<rect x="0" y="0" width="32" height="32" style="fill:rgb(0%,0%,0%);fill-opacity:0.996078;stroke:none;"/>
  </g>
</mask>
<clipPath id="clip1">
  <rect x="0" y="0" width="32" height="32"/>
</clipPath>
<g id="surface5" clip-path="url(#clip1)">
<path style=" stroke:none;fill-rule:evenodd;fill:rgb(11.764706%,53.333333%,89.803922%);fill-opacity:1;" d="M 14.65625 1.96875 C 19.972656 1.675781 24.234375 3.632812 27.4375 7.84375 C 30.300781 12.203125 30.757812 16.804688 28.8125 21.65625 C 26.472656 26.492188 22.628906 29.253906 17.28125 29.9375 C 11.960938 30.261719 7.703125 28.3125 4.5 24.09375 C 1.636719 19.734375 1.179688 15.132812 3.125 10.28125 C 5.472656 5.441406 9.316406 2.671875 14.65625 1.96875 Z M 14.65625 1.96875 "/>
</g>
</defs>
<g id="surface1">
<use xlink:href="#surface5" mask="url(#mask0)"/>
<path style=" stroke:none;fill-rule:evenodd;fill:rgb(97.647059%,97.647059%,97.647059%);fill-opacity:1;" d="M 10.46875 7.34375 C 10.644531 7.328125 10.8125 7.359375 10.96875 7.4375 C 13.675781 10.144531 16.386719 12.855469 19.09375 15.5625 C 19.136719 15.605469 19.175781 15.605469 19.21875 15.5625 C 19.800781 14.980469 20.386719 14.394531 20.96875 13.8125 C 21.230469 13.671875 21.472656 13.703125 21.6875 13.90625 C 22.199219 16.667969 22.679688 19.441406 23.125 22.21875 C 23.324219 23.019531 23.019531 23.324219 22.21875 23.125 C 19.59375 22.6875 16.96875 22.25 14.34375 21.8125 C 13.792969 21.761719 13.617188 21.480469 13.8125 20.96875 C 14.394531 20.386719 14.980469 19.800781 15.5625 19.21875 C 15.605469 19.175781 15.605469 19.136719 15.5625 19.09375 C 12.8125 16.363281 10.082031 13.613281 7.375 10.84375 C 7.332031 10.71875 7.332031 10.59375 7.375 10.46875 C 8.417969 9.433594 9.449219 8.394531 10.46875 7.34375 Z M 10.46875 7.34375 "/>
</g>
</svg>
