<?xml version="1.0" encoding="UTF-8"?>
<svg xmlns="http://www.w3.org/2000/svg" xmlns:xlink="http://www.w3.org/1999/xlink" width="24px" height="24px" viewBox="0 0 24 24" version="1.1">
<g id="surface1">
<path style=" stroke:none;fill-rule:nonzero;fill:rgb(59.215686%,85.490196%,48.235294%);fill-opacity:1;" d="M 9.113281 4.710938 C 9.113281 6.65625 7.53125 8.238281 5.585938 8.238281 C 3.636719 8.238281 2.058594 6.65625 2.058594 4.710938 C 2.058594 2.761719 3.636719 1.183594 5.585938 1.183594 C 7.53125 1.183594 9.113281 2.761719 9.113281 4.710938 Z M 9.113281 4.710938 "/>
<path style=" stroke:none;fill-rule:nonzero;fill:rgb(91.764706%,96.470588%,100%);fill-opacity:1;" d="M 14.601562 13.785156 L 21.941406 4.707031 L 5.585938 4.707031 L 12.925781 13.785156 L 12.925781 20.84375 C 12.925781 21.144531 12.746094 21.414062 12.472656 21.53125 L 9.492188 22.816406 L 18.035156 22.816406 L 15.054688 21.53125 C 14.78125 21.414062 14.601562 21.144531 14.601562 20.84375 Z M 14.601562 13.785156 "/>
<path style=" stroke:none;fill-rule:nonzero;fill:rgb(59.215686%,85.490196%,48.235294%);fill-opacity:1;" d="M 18.105469 7.363281 L 13.761719 12.734375 L 9.421875 7.363281 C 9.421875 7.363281 10.222656 6.84375 12.011719 6.84375 C 14.585938 6.84375 15.160156 8.296875 18.105469 7.363281 Z M 18.105469 7.363281 "/>
<path style=" stroke:none;fill-rule:nonzero;fill:rgb(0%,0%,0%);fill-opacity:1;" d="M 18.164062 22.515625 L 15.183594 21.230469 C 15.03125 21.164062 14.929688 21.011719 14.929688 20.84375 L 14.929688 19.53125 C 14.929688 19.347656 14.785156 19.203125 14.601562 19.203125 C 14.421875 19.203125 14.273438 19.347656 14.273438 19.53125 L 14.273438 20.84375 C 14.273438 21.273438 14.53125 21.664062 14.925781 21.832031 L 16.445312 22.488281 L 11.082031 22.488281 L 12.601562 21.832031 C 12.996094 21.664062 13.25 21.273438 13.25 20.84375 L 13.25 13.785156 C 13.25 13.707031 13.226562 13.636719 13.179688 13.578125 L 8.058594 7.246094 L 6.273438 5.039062 L 10.175781 5.039062 C 10.359375 5.039062 10.503906 4.890625 10.503906 4.710938 C 10.503906 4.527344 10.359375 4.382812 10.175781 4.382812 L 9.421875 4.382812 C 9.25 2.359375 7.539062 0.816406 5.507812 0.859375 C 3.480469 0.898438 1.828125 2.503906 1.734375 4.53125 C 1.636719 6.558594 3.132812 8.3125 5.148438 8.539062 C 5.292969 8.558594 5.441406 8.566406 5.585938 8.566406 C 6.355469 8.566406 7.109375 8.335938 7.746094 7.902344 L 12.597656 13.898438 L 12.597656 20.84375 C 12.597656 21.011719 12.496094 21.164062 12.339844 21.230469 L 9.363281 22.515625 C 9.21875 22.578125 9.140625 22.730469 9.171875 22.882812 C 9.203125 23.035156 9.335938 23.144531 9.492188 23.144531 L 18.035156 23.144531 C 18.1875 23.144531 18.324219 23.035156 18.355469 22.882812 C 18.386719 22.730469 18.304688 22.578125 18.164062 22.515625 Z M 5.222656 7.886719 C 3.554688 7.699219 2.320312 6.253906 2.386719 4.578125 C 2.457031 2.902344 3.808594 1.5625 5.488281 1.511719 C 7.164062 1.460938 8.59375 2.714844 8.765625 4.382812 L 5.585938 4.382812 C 5.457031 4.382812 5.34375 4.453125 5.289062 4.570312 C 5.234375 4.683594 5.25 4.816406 5.328125 4.917969 L 7.332031 7.390625 C 6.707031 7.796875 5.960938 7.972656 5.222656 7.886719 Z M 5.222656 7.886719 "/>
<path style=" stroke:none;fill-rule:nonzero;fill:rgb(0%,0%,0%);fill-opacity:1;" d="M 11.910156 5.039062 L 12.753906 5.039062 C 12.933594 5.039062 13.082031 4.890625 13.082031 4.710938 C 13.082031 4.527344 12.933594 4.382812 12.753906 4.382812 L 11.910156 4.382812 C 11.730469 4.382812 11.582031 4.527344 11.582031 4.710938 C 11.582031 4.890625 11.730469 5.039062 11.910156 5.039062 Z M 11.910156 5.039062 "/>
<path style=" stroke:none;fill-rule:nonzero;fill:rgb(0%,0%,0%);fill-opacity:1;" d="M 22.238281 4.566406 C 22.183594 4.453125 22.066406 4.382812 21.941406 4.378906 L 14.5625 4.378906 C 14.382812 4.378906 14.234375 4.527344 14.234375 4.707031 C 14.234375 4.890625 14.382812 5.035156 14.5625 5.035156 L 21.253906 5.035156 L 14.347656 13.578125 C 14.300781 13.636719 14.273438 13.707031 14.273438 13.785156 L 14.273438 17.773438 C 14.273438 17.957031 14.421875 18.101562 14.601562 18.101562 C 14.785156 18.101562 14.929688 17.957031 14.929688 17.773438 L 14.929688 13.898438 L 22.199219 4.914062 C 22.277344 4.816406 22.292969 4.683594 22.238281 4.566406 Z M 22.238281 4.566406 "/>
<path style=" stroke:none;fill-rule:nonzero;fill:rgb(0%,0%,0%);fill-opacity:1;" d="M 9.242188 7.089844 C 9.164062 7.140625 9.109375 7.222656 9.097656 7.3125 C 9.082031 7.40625 9.105469 7.5 9.164062 7.570312 L 13.507812 12.941406 C 13.570312 13.015625 13.664062 13.0625 13.761719 13.0625 C 13.863281 13.0625 13.957031 13.015625 14.019531 12.941406 L 18.363281 7.570312 C 18.453125 7.457031 18.460938 7.300781 18.378906 7.179688 C 18.296875 7.058594 18.144531 7.007812 18.007812 7.050781 C 16.339844 7.578125 15.5 7.300781 14.523438 6.984375 C 13.71875 6.683594 12.871094 6.523438 12.011719 6.515625 C 10.148438 6.515625 9.277344 7.066406 9.242188 7.089844 Z M 17.234375 7.921875 L 13.761719 12.210938 L 9.941406 7.484375 C 10.605469 7.261719 11.308594 7.152344 12.011719 7.171875 C 12.800781 7.179688 13.582031 7.328125 14.320312 7.605469 C 15.160156 7.882812 15.964844 8.144531 17.234375 7.921875 Z M 17.234375 7.921875 "/>
<path style=" stroke:none;fill-rule:nonzero;fill:rgb(0%,0%,0%);fill-opacity:1;" d="M 5.585938 3.71875 C 5.765625 3.71875 5.914062 3.570312 5.914062 3.390625 L 5.914062 2.503906 C 5.914062 2.320312 5.765625 2.175781 5.585938 2.175781 C 5.402344 2.175781 5.257812 2.320312 5.257812 2.503906 L 5.257812 3.390625 C 5.257812 3.570312 5.402344 3.71875 5.585938 3.71875 Z M 5.585938 3.71875 "/>
<path style=" stroke:none;fill-rule:nonzero;fill:rgb(0%,0%,0%);fill-opacity:1;" d="M 5.257812 6.917969 C 5.257812 7.097656 5.402344 7.246094 5.585938 7.246094 C 5.765625 7.246094 5.914062 7.097656 5.914062 6.917969 L 5.914062 6.03125 C 5.914062 5.847656 5.765625 5.703125 5.585938 5.703125 C 5.402344 5.703125 5.257812 5.847656 5.257812 6.03125 Z M 5.257812 6.917969 "/>
<path style=" stroke:none;fill-rule:nonzero;fill:rgb(0%,0%,0%);fill-opacity:1;" d="M 4.59375 4.710938 C 4.59375 4.527344 4.445312 4.382812 4.265625 4.382812 L 3.378906 4.382812 C 3.195312 4.382812 3.050781 4.527344 3.050781 4.710938 C 3.050781 4.890625 3.195312 5.039062 3.378906 5.039062 L 4.265625 5.039062 C 4.445312 5.039062 4.59375 4.890625 4.59375 4.710938 Z M 4.59375 4.710938 "/>
<path style=" stroke:none;fill-rule:nonzero;fill:rgb(0%,0%,0%);fill-opacity:1;" d="M 6.519531 4.105469 C 6.605469 4.105469 6.6875 4.070312 6.75 4.007812 L 7.375 3.382812 C 7.503906 3.253906 7.503906 3.046875 7.375 2.917969 C 7.25 2.789062 7.039062 2.789062 6.914062 2.917969 L 6.285156 3.542969 C 6.191406 3.636719 6.164062 3.777344 6.214844 3.902344 C 6.265625 4.023438 6.386719 4.105469 6.519531 4.105469 Z M 6.519531 4.105469 "/>
<path style=" stroke:none;fill-rule:nonzero;fill:rgb(0%,0%,0%);fill-opacity:1;" d="M 4.417969 5.410156 L 3.792969 6.039062 C 3.707031 6.121094 3.671875 6.242188 3.703125 6.355469 C 3.734375 6.472656 3.824219 6.5625 3.9375 6.589844 C 4.050781 6.621094 4.171875 6.585938 4.257812 6.5 L 4.882812 5.875 C 5.011719 5.746094 5.011719 5.539062 4.882812 5.410156 C 4.753906 5.28125 4.546875 5.28125 4.417969 5.410156 Z M 4.417969 5.410156 "/>
<path style=" stroke:none;fill-rule:nonzero;fill:rgb(0%,0%,0%);fill-opacity:1;" d="M 4.257812 2.917969 C 4.128906 2.789062 3.921875 2.789062 3.792969 2.917969 C 3.664062 3.046875 3.664062 3.253906 3.792969 3.382812 L 4.417969 4.007812 C 4.546875 4.136719 4.753906 4.136719 4.882812 4.007812 C 5.011719 3.878906 5.011719 3.671875 4.882812 3.542969 Z M 4.257812 2.917969 "/>
</g>
</svg>
