<?xml version="1.0" encoding="UTF-8"?>
<svg xmlns="http://www.w3.org/2000/svg" xmlns:xlink="http://www.w3.org/1999/xlink" width="48px" height="48px" viewBox="0 0 48 48" version="1.1">
<g id="surface1">
<path style=" stroke:none;fill-rule:nonzero;fill:rgb(100%,61.568627%,20%);fill-opacity:1;" d="M 42.75 19.648438 C 42.75 19.648438 40.5 21.75 36.675781 24.226562 C 35.625 18.148438 32.699219 10.648438 27 1.5 C 27 1.5 25.125 11.324219 18.898438 20.550781 C 16.199219 16.351562 15 13.050781 15 13.050781 C -4.5 32.625 11.699219 46.5 21.898438 46.5 C 34.949219 46.5 46.425781 40.199219 42.75 19.648438 "/>
<path style=" stroke:none;fill-rule:nonzero;fill:rgb(100%,80.784314%,19.215686%);fill-opacity:1;" d="M 35.023438 37.050781 C 36.148438 34.574219 36.976562 31.351562 37.125 27.300781 C 37.125 27.300781 35.550781 28.648438 32.851562 30.375 C 32.101562 26.324219 30.074219 21.375 26.101562 15.226562 C 26.101562 15.226562 24.824219 21.75 20.476562 27.976562 C 18.601562 25.199219 17.773438 22.949219 17.773438 22.949219 C 14.550781 28.050781 13.273438 32.101562 13.199219 35.324219 C 11.398438 34.648438 10.273438 34.125 10.273438 34.125 C 13.351562 43.273438 19.726562 45.300781 22.574219 45.300781 C 27.675781 45.300781 32.851562 43.800781 37.949219 36.523438 C 37.949219 36.449219 36.824219 36.75 35.023438 37.050781 "/>
<path style=" stroke:none;fill-rule:nonzero;fill:rgb(100%,87.45098%,52.156863%);fill-opacity:1;" d="M 16.425781 32.925781 C 16.425781 32.925781 18.523438 35.773438 20.101562 35.101562 C 20.101562 35.101562 23.101562 30.375 27.449219 27.75 C 27.449219 27.75 26.550781 34.949219 27.601562 36.226562 C 28.949219 37.949219 32.625 34.351562 32.625 34.351562 C 32.625 38.625 27.976562 43.949219 23.773438 43.949219 C 19.726562 43.949219 13.875 39.300781 16.425781 32.925781 "/>
<path style=" stroke:none;fill-rule:nonzero;fill:rgb(100%,61.568627%,20%);fill-opacity:1;" d="M 37.351562 13.574219 C 38.925781 11.324219 39.976562 8.925781 39.976562 8.925781 C 42.601562 13.273438 41.023438 15.898438 39.898438 16.726562 C 38.324219 17.925781 35.550781 16.199219 37.351562 13.574219 M 8.699219 12.824219 C 7.125 10.199219 6.976562 6.898438 6.976562 6.898438 C 3.226562 12.523438 4.648438 15.675781 5.925781 16.574219 C 7.574219 17.851562 10.425781 15.898438 8.699219 12.824219 M 17.398438 6.976562 C 17.625 5.175781 16.875 3.375 16.875 3.375 C 20.398438 5.699219 20.398438 7.648438 19.949219 8.476562 C 19.273438 9.449219 17.175781 9 17.398438 6.976562 "/>
</g>
</svg>
