<?xml version="1.0" encoding="UTF-8"?>
<svg xmlns="http://www.w3.org/2000/svg" xmlns:xlink="http://www.w3.org/1999/xlink" width="24px" height="24px" viewBox="0 0 24 24" version="1.1">
<g id="surface1">
<path style=" stroke:none;fill-rule:nonzero;fill:rgb(17.647059%,12.156863%,36.862745%);fill-opacity:1;" d="M 17.203125 18.921875 C 16.464844 18.921875 15.863281 18.324219 15.863281 17.582031 L 15.859375 13.96875 C 15.859375 13.644531 15.597656 13.382812 15.273438 13.382812 L 14.71875 13.382812 C 14.539062 13.382812 14.390625 13.238281 14.390625 13.054688 C 14.390625 12.875 14.539062 12.726562 14.71875 12.726562 L 15.273438 12.726562 C 15.960938 12.726562 16.515625 13.285156 16.515625 13.96875 L 16.519531 17.582031 C 16.527344 17.953125 16.832031 18.25 17.203125 18.25 C 17.574219 18.25 17.878906 17.953125 17.886719 17.582031 L 17.886719 13.941406 C 17.886719 13.757812 18.035156 13.613281 18.214844 13.613281 C 18.398438 13.613281 18.542969 13.757812 18.542969 13.941406 L 18.542969 17.582031 C 18.542969 18.320312 17.945312 18.921875 17.203125 18.921875 Z M 17.203125 18.921875 "/>
<path style=" stroke:none;fill-rule:nonzero;fill:rgb(100%,67.843137%,35.294118%);fill-opacity:1;" d="M 5.917969 6.1875 L 14.71875 6.1875 L 14.71875 20.4375 L 5.917969 20.4375 Z M 5.917969 6.1875 "/>
<path style=" stroke:none;fill-rule:nonzero;fill:rgb(97.647059%,81.960784%,43.137255%);fill-opacity:1;" d="M 7.640625 7.859375 L 12.996094 7.859375 L 12.996094 12.121094 L 7.640625 12.121094 Z M 7.640625 7.859375 "/>
<path style=" stroke:none;fill-rule:nonzero;fill:rgb(90.980392%,28.627451%,28.627451%);fill-opacity:1;" d="M 5.847656 4.6875 L 14.785156 4.6875 C 15.199219 4.6875 15.535156 5.023438 15.535156 5.4375 C 15.535156 5.851562 15.199219 6.1875 14.785156 6.1875 L 5.847656 6.1875 C 5.433594 6.1875 5.097656 5.851562 5.097656 5.4375 C 5.097656 5.023438 5.433594 4.6875 5.847656 4.6875 Z M 5.847656 4.6875 "/>
<path style=" stroke:none;fill-rule:nonzero;fill:rgb(17.647059%,12.156863%,36.862745%);fill-opacity:1;" d="M 17.355469 11.78125 C 17.269531 11.78125 17.183594 11.746094 17.121094 11.683594 C 17.0625 11.625 17.027344 11.539062 17.027344 11.453125 L 17.027344 10.765625 C 17.027344 10.519531 16.828125 10.320312 16.578125 10.316406 L 16.191406 10.316406 C 16.011719 10.316406 15.863281 10.171875 15.863281 9.988281 C 15.863281 9.808594 16.011719 9.660156 16.191406 9.660156 L 16.578125 9.660156 C 17.1875 9.664062 17.683594 10.15625 17.683594 10.765625 L 17.683594 11.453125 C 17.683594 11.632812 17.535156 11.78125 17.355469 11.78125 Z M 17.355469 11.78125 "/>
<path style=" stroke:none;fill-rule:nonzero;fill:rgb(100%,97.254902%,89.019608%);fill-opacity:1;" d="M 11.382812 17.027344 C 11.375 17.609375 10.902344 18.078125 10.316406 18.078125 C 9.734375 18.078125 9.261719 17.609375 9.253906 17.027344 C 9.253906 16.441406 10.316406 15 10.316406 15 C 10.316406 15 11.382812 16.441406 11.382812 17.027344 Z M 11.382812 17.027344 "/>
<path style=" stroke:none;fill-rule:nonzero;fill:rgb(17.647059%,12.156863%,36.862745%);fill-opacity:1;" d="M 20.4375 20.765625 L 3.5625 20.765625 C 3.382812 20.765625 3.234375 20.617188 3.234375 20.4375 C 3.234375 20.257812 3.382812 20.109375 3.5625 20.109375 L 20.4375 20.109375 C 20.617188 20.109375 20.765625 20.257812 20.765625 20.4375 C 20.765625 20.617188 20.617188 20.765625 20.4375 20.765625 Z M 20.4375 20.765625 "/>
<path style=" stroke:none;fill-rule:nonzero;fill:rgb(100%,67.843137%,35.294118%);fill-opacity:1;" d="M 18.214844 13.941406 C 17.742188 13.9375 17.355469 13.554688 17.355469 13.078125 L 17.355469 11.164062 L 18.6875 12.039062 C 18.933594 12.199219 19.078125 12.46875 19.078125 12.761719 L 19.078125 13.078125 C 19.078125 13.554688 18.691406 13.9375 18.214844 13.941406 Z M 18.214844 13.941406 "/>
<path style=" stroke:none;fill-rule:nonzero;fill:rgb(90.980392%,28.627451%,28.627451%);fill-opacity:1;" d="M 18.214844 14.269531 C 17.558594 14.269531 17.027344 13.734375 17.027344 13.078125 L 17.027344 11.164062 C 17.027344 11.046875 17.09375 10.933594 17.199219 10.875 C 17.304688 10.820312 17.433594 10.824219 17.535156 10.890625 L 18.867188 11.765625 C 19.203125 11.984375 19.40625 12.359375 19.40625 12.761719 L 19.40625 13.078125 C 19.40625 13.734375 18.875 14.269531 18.214844 14.269531 Z M 17.683594 11.773438 L 17.683594 13.078125 C 17.683594 13.371094 17.921875 13.613281 18.214844 13.613281 C 18.511719 13.613281 18.75 13.371094 18.75 13.078125 L 18.75 12.761719 C 18.75 12.582031 18.660156 12.414062 18.507812 12.316406 Z M 17.683594 11.773438 "/>
<path style=" stroke:none;fill-rule:nonzero;fill:rgb(90.980392%,28.627451%,28.627451%);fill-opacity:1;" d="M 14.71875 8.453125 L 15.226562 8.453125 C 15.761719 8.453125 16.191406 8.886719 16.191406 9.421875 L 16.191406 10.558594 C 16.191406 11.09375 15.761719 11.527344 15.226562 11.527344 L 14.71875 11.527344 Z M 14.71875 8.453125 "/>
</g>
</svg>
