<?xml version="1.0" encoding="UTF-8"?>
<svg xmlns="http://www.w3.org/2000/svg" xmlns:xlink="http://www.w3.org/1999/xlink" width="32px" height="32px" viewBox="0 0 32 32" version="1.1">
<defs>
<filter id="alpha" filterUnits="objectBoundingBox" x="0%" y="0%" width="100%" height="100%">
  <feColorMatrix type="matrix" in="SourceGraphic" values="0 0 0 0 1 0 0 0 0 1 0 0 0 0 1 0 0 0 1 0"/>
</filter>
<mask id="mask0">
  <g filter="url(#alpha)">
<rect x="0" y="0" width="32" height="32" style="fill:rgb(0%,0%,0%);fill-opacity:0.996078;stroke:none;"/>
  </g>
</mask>
<clipPath id="clip1">
  <rect x="0" y="0" width="32" height="32"/>
</clipPath>
<g id="surface5" clip-path="url(#clip1)">
<path style=" stroke:none;fill-rule:evenodd;fill:rgb(11.764706%,53.333333%,89.803922%);fill-opacity:1;" d="M 14.59375 0.96875 C 19.933594 0.664062 24.320312 2.539062 27.75 6.59375 C 30.84375 10.71875 31.71875 15.28125 30.375 20.28125 C 28.71875 25.355469 25.355469 28.71875 20.28125 30.375 C 14.816406 31.816406 9.960938 30.691406 5.71875 27 C 1.871094 23.191406 0.363281 18.597656 1.1875 13.21875 C 2.316406 7.96875 5.324219 4.25 10.21875 2.0625 C 11.636719 1.5 13.09375 1.136719 14.59375 0.96875 Z M 14.59375 0.96875 "/>
</g>
</defs>
<g id="surface1">
<use xlink:href="#surface5" mask="url(#mask0)"/>
<path style=" stroke:none;fill-rule:evenodd;fill:rgb(95.686275%,95.686275%,95.686275%);fill-opacity:1;" d="M 11.71875 9.96875 C 12.21875 9.933594 12.601562 10.121094 12.875 10.53125 C 12.964844 11.507812 12.996094 12.484375 12.96875 13.46875 C 17.238281 13.457031 21.511719 13.46875 25.78125 13.5 C 26.277344 13.644531 26.644531 13.945312 26.875 14.40625 C 26.945312 14.914062 26.976562 15.421875 26.96875 15.9375 C 26.976562 16.453125 26.945312 16.960938 26.875 17.46875 C 26.667969 17.96875 26.300781 18.292969 25.78125 18.4375 C 21.511719 18.46875 17.238281 18.480469 12.96875 18.46875 C 12.980469 19.386719 12.96875 20.300781 12.9375 21.21875 C 12.71875 21.769531 12.3125 22.011719 11.71875 21.9375 C 11.488281 21.84375 11.28125 21.71875 11.09375 21.5625 C 9.214844 20.082031 7.320312 18.621094 5.40625 17.1875 C 4.582031 16.371094 4.582031 15.558594 5.40625 14.75 C 7.503906 13.140625 9.609375 11.546875 11.71875 9.96875 Z M 11.71875 9.96875 "/>
</g>
</svg>
