<?xml version="1.0" encoding="UTF-8"?>
<svg xmlns="http://www.w3.org/2000/svg" xmlns:xlink="http://www.w3.org/1999/xlink" width="24px" height="24px" viewBox="0 0 24 24" version="1.1">
<g id="surface1">
<path style=" stroke:none;fill-rule:nonzero;fill:rgb(82.352941%,18.431373%,15.294118%);fill-opacity:1;" d="M 17.523438 9.703125 C 17.523438 6.597656 15.148438 4.074219 12.222656 4.074219 C 9.300781 4.074219 6.921875 6.597656 6.921875 9.703125 C 6.921875 9.859375 6.996094 13.574219 11.242188 20.121094 C 11.421875 20.484375 11.777344 20.730469 12.183594 20.765625 C 12.792969 20.765625 13.214844 20.089844 13.253906 20.019531 C 17.527344 13.472656 17.527344 9.851562 17.523438 9.703125 Z M 12.222656 11.972656 C 10.917969 11.972656 9.863281 10.914062 9.863281 9.609375 C 9.863281 8.304688 10.917969 7.25 12.222656 7.25 C 13.527344 7.25 14.585938 8.304688 14.585938 9.609375 C 14.582031 10.914062 13.527344 11.96875 12.222656 11.972656 Z M 12.222656 11.972656 "/>
<path style=" stroke:none;fill-rule:nonzero;fill:rgb(91.764706%,35.294118%,27.843137%);fill-opacity:1;" d="M 17.523438 9.703125 C 17.523438 6.597656 15.148438 4.074219 12.222656 4.074219 C 11.789062 4.074219 11.355469 4.132812 10.933594 4.246094 C 13.734375 4.398438 15.96875 6.855469 15.96875 9.863281 C 15.96875 10.011719 15.96875 13.632812 11.699219 20.179688 C 11.640625 20.273438 11.574219 20.363281 11.5 20.445312 C 11.675781 20.640625 11.921875 20.757812 12.183594 20.765625 C 12.792969 20.765625 13.214844 20.089844 13.253906 20.019531 C 17.527344 13.472656 17.527344 9.851562 17.523438 9.703125 Z M 17.523438 9.703125 "/>
<path style="fill:none;stroke-width:2;stroke-linecap:round;stroke-linejoin:round;stroke:rgb(0%,0%,0%);stroke-opacity:1;stroke-miterlimit:4;" d="M 36.550781 62.296875 C 35.332031 62.191406 34.265625 61.453125 33.726562 60.363281 C 20.988281 40.722656 20.765625 29.578125 20.765625 29.109375 C 20.765625 19.792969 27.902344 12.222656 36.667969 12.222656 C 45.445312 12.222656 52.570312 19.792969 52.570312 29.109375 C 52.582031 29.554688 52.582031 40.417969 39.761719 60.058594 C 39.644531 60.269531 38.378906 62.296875 36.550781 62.296875 Z M 36.550781 62.296875 " transform="matrix(0.333333,0,0,0.333333,0,0)"/>
<path style="fill:none;stroke-width:2;stroke-linecap:round;stroke-linejoin:round;stroke:rgb(0%,0%,0%);stroke-opacity:1;stroke-miterlimit:4;" d="M 36.667969 35.917969 C 32.753906 35.917969 29.589844 32.742188 29.589844 28.828125 C 29.589844 24.914062 32.753906 21.75 36.667969 21.75 C 40.582031 21.75 43.757812 24.914062 43.757812 28.828125 C 43.746094 32.742188 40.582031 35.90625 36.667969 35.917969 Z M 36.667969 35.917969 " transform="matrix(0.333333,0,0,0.333333,0,0)"/>
</g>
</svg>
