<?xml version="1.0" encoding="UTF-8"?>
<svg xmlns="http://www.w3.org/2000/svg" xmlns:xlink="http://www.w3.org/1999/xlink" width="24px" height="24px" viewBox="0 0 24 24" version="1.1">
<g id="surface1">
<path style=" stroke:none;fill-rule:nonzero;fill:rgb(74.509804%,9.803922%,19.215686%);fill-opacity:1;" d="M 14 10 C 14 11.472656 12.804688 12.667969 11.332031 12.667969 L 2.667969 12.667969 C 1.195312 12.667969 0 11.472656 0 10 L 0 8 C 0 6.527344 1.195312 5.332031 2.667969 5.332031 L 11.332031 5.332031 C 12.804688 5.332031 14 6.527344 14 8 Z M 14 10 "/>
<path style=" stroke:none;fill-rule:nonzero;fill:rgb(74.509804%,9.803922%,19.215686%);fill-opacity:1;" d="M 24 4 C 24 5.472656 22.804688 6.667969 21.332031 6.667969 L 13.332031 6.667969 C 11.859375 6.667969 10.667969 5.472656 10.667969 4 L 10.667969 3.332031 C 10.667969 1.859375 11.859375 0.667969 13.332031 0.667969 L 21.332031 0.667969 C 22.804688 0.667969 24 1.859375 24 3.332031 Z M 24 4 "/>
<path style=" stroke:none;fill-rule:nonzero;fill:rgb(95.686275%,67.058824%,72.941176%);fill-opacity:1;" d="M 0 8 L 0 22.667969 C 0 23.402344 0.597656 24 1.332031 24 L 22 24 L 22 8 Z M 0 8 "/>
<path style=" stroke:none;fill-rule:nonzero;fill:rgb(23.137255%,53.333333%,76.470588%);fill-opacity:1;" d="M 1.332031 21.332031 L 9.332031 21.332031 L 9.332031 24 L 1.332031 24 Z M 1.332031 17.332031 L 12 17.332031 L 12 20 L 1.332031 20 Z M 1.332031 17.332031 "/>
<path style=" stroke:none;fill-rule:nonzero;fill:rgb(100%,83.137255%,87.058824%);fill-opacity:1;" d="M 10.667969 3.332031 L 10.667969 24 L 22.667969 24 C 23.402344 24 24 23.402344 24 22.667969 L 24 3.332031 Z M 10.667969 3.332031 "/>
<path style=" stroke:none;fill-rule:nonzero;fill:rgb(33.333333%,67.45098%,93.333333%);fill-opacity:1;" d="M 12 13.332031 L 22.667969 13.332031 L 22.667969 16 L 12 16 Z M 12 9.332031 L 22.667969 9.332031 L 22.667969 12 L 12 12 Z M 12 5.332031 L 22.667969 5.332031 L 22.667969 8 L 12 8 Z M 12 17.332031 L 22.667969 17.332031 L 22.667969 20 L 12 20 Z M 12 17.332031 "/>
<path style=" stroke:none;fill-rule:nonzero;fill:rgb(100%,83.137255%,87.058824%);fill-opacity:1;" d="M 14.667969 4.667969 L 16 4.667969 L 16 20.667969 L 14.667969 20.667969 Z M 18.667969 4.667969 L 20 4.667969 L 20 20.667969 L 18.667969 20.667969 Z M 18.667969 4.667969 "/>
<path style=" stroke:none;fill-rule:nonzero;fill:rgb(23.137255%,53.333333%,76.470588%);fill-opacity:1;" d="M 14.667969 21.332031 L 20 21.332031 L 20 24 L 14.667969 24 Z M 14.667969 21.332031 "/>
<path style=" stroke:none;fill-rule:nonzero;fill:rgb(86.666667%,18.039216%,26.666667%);fill-opacity:1;" d="M 6.667969 9.332031 L 6.667969 12 L 4 12 L 4 9.332031 L 2.667969 9.332031 L 2.667969 16 L 4 16 L 4 13.332031 L 6.667969 13.332031 L 6.667969 16 L 8 16 L 8 9.332031 Z M 6.667969 9.332031 "/>
<path style=" stroke:none;fill-rule:nonzero;fill:rgb(95.686275%,67.058824%,72.941176%);fill-opacity:1;" d="M 4.667969 16.667969 L 6 16.667969 L 6 20.667969 L 4.667969 20.667969 Z M 9.332031 16.667969 L 10.667969 16.667969 L 10.667969 20.667969 L 9.332031 20.667969 Z M 9.332031 16.667969 "/>
<path style=" stroke:none;fill-rule:nonzero;fill:rgb(91.764706%,34.901961%,43.137255%);fill-opacity:1;" d="M 2 2 C 2 0.160156 4.640625 -0.667969 5.332031 2 C 6.082031 -0.667969 8.667969 0.160156 8.667969 2 C 8.667969 4 5.332031 6 5.332031 6 C 5.332031 6 2 4 2 2 Z M 2 2 "/>
</g>
</svg>
