<?xml version="1.0" encoding="UTF-8"?>
<svg xmlns="http://www.w3.org/2000/svg" xmlns:xlink="http://www.w3.org/1999/xlink" width="24px" height="24px" viewBox="0 0 24 24" version="1.1">
<g id="surface1">
<path style=" stroke:none;fill-rule:evenodd;fill:rgb(11.764706%,53.333333%,89.803922%);fill-opacity:1;" d="M 2.929688 1.476562 C 8.960938 1.46875 14.992188 1.476562 21.023438 1.5 C 21.78125 1.695312 22.257812 2.171875 22.453125 2.929688 C 22.484375 8.960938 22.484375 14.992188 22.453125 21.023438 C 22.257812 21.78125 21.78125 22.257812 21.023438 22.453125 C 14.992188 22.484375 8.960938 22.484375 2.929688 22.453125 C 2.171875 22.257812 1.695312 21.78125 1.5 21.023438 C 1.46875 14.992188 1.46875 8.960938 1.5 2.929688 C 1.703125 2.171875 2.179688 1.6875 2.929688 1.476562 Z M 2.929688 1.476562 "/>
<path style=" stroke:none;fill-rule:evenodd;fill:rgb(97.647059%,97.647059%,97.647059%);fill-opacity:1;" d="M 10.523438 3.726562 C 12.925781 3.574219 14.871094 4.433594 16.359375 6.304688 C 16.96875 7.132812 17.359375 8.054688 17.53125 9.070312 C 17.597656 10.289062 17.621094 11.507812 17.601562 12.726562 C 18.058594 12.707031 18.511719 12.730469 18.960938 12.796875 C 19.085938 12.921875 19.125 13.070312 19.078125 13.242188 C 18.1875 14.804688 17.273438 16.351562 16.335938 17.882812 C 16.175781 18.003906 16.019531 18.003906 15.867188 17.882812 C 14.929688 16.351562 14.015625 14.804688 13.125 13.242188 C 13.0625 13.019531 13.132812 12.855469 13.335938 12.75 C 13.757812 12.726562 14.179688 12.71875 14.601562 12.726562 C 14.621094 11.597656 14.597656 10.472656 14.53125 9.351562 C 13.941406 7.488281 12.667969 6.621094 10.710938 6.75 C 9.398438 7.015625 8.5 7.773438 8.015625 9.023438 C 7.953125 9.207031 7.90625 9.394531 7.875 9.585938 C 7.859375 13.039062 7.84375 16.492188 7.828125 19.945312 C 7.804688 20.09375 7.71875 20.179688 7.570312 20.203125 C 6.742188 20.234375 5.914062 20.234375 5.085938 20.203125 C 5.019531 20.179688 4.964844 20.140625 4.921875 20.085938 C 4.84375 16.527344 4.828125 12.964844 4.875 9.398438 C 5.453125 6.203125 7.335938 4.3125 10.523438 3.726562 Z M 10.523438 3.726562 "/>
</g>
</svg>
