<?xml version="1.0" encoding="UTF-8"?>
<svg xmlns="http://www.w3.org/2000/svg" xmlns:xlink="http://www.w3.org/1999/xlink" width="24px" height="24px" viewBox="0 0 24 24" version="1.1">
<g id="surface1">
<path style=" stroke:none;fill-rule:nonzero;fill:rgb(96.862745%,69.803922%,22.352941%);fill-opacity:1;" d="M 22.644531 11.0625 C 22.644531 16.941406 17.878906 21.707031 12 21.707031 C 6.121094 21.707031 1.355469 16.941406 1.355469 11.0625 C 1.355469 5.183594 6.121094 0.417969 12 0.417969 C 17.878906 0.417969 22.644531 5.183594 22.644531 11.0625 Z M 22.644531 11.0625 "/>
<path style=" stroke:none;fill-rule:nonzero;fill:rgb(87.843137%,60.784314%,17.647059%);fill-opacity:1;" d="M 19.007812 11.0625 C 19.007812 14.933594 15.871094 18.070312 12 18.070312 C 8.132812 18.070312 4.996094 14.933594 4.996094 11.0625 C 4.996094 7.195312 8.132812 4.058594 12 4.058594 C 15.871094 4.058594 19.007812 7.195312 19.007812 11.0625 Z M 19.007812 11.0625 "/>
<path style=" stroke:none;fill-rule:nonzero;fill:rgb(90.196078%,90.196078%,90.196078%);fill-opacity:1;" d="M 18.984375 9.230469 C 19.027344 9.390625 19.046875 9.550781 19.046875 9.707031 C 19.046875 10.523438 18.503906 11.265625 17.679688 11.488281 C 16.695312 11.75 15.6875 11.167969 15.421875 10.183594 L 15.300781 9.726562 L 17.078125 9.246094 L 18.859375 8.769531 Z M 18.984375 9.230469 "/>
<path style=" stroke:none;fill-rule:nonzero;fill:rgb(90.196078%,90.196078%,90.196078%);fill-opacity:1;" d="M 8.039062 3.5625 C 9.378906 3.921875 9.988281 5.984375 9.402344 8.175781 C 8.816406 10.363281 7.492188 10.964844 6.152344 10.605469 C 4.8125 10.25 3.96875 9.0625 4.554688 6.875 C 5.140625 4.6875 6.703125 3.203125 8.039062 3.5625 Z M 8.039062 3.5625 "/>
<path style=" stroke:none;fill-rule:nonzero;fill:rgb(94.901961%,29.803922%,56.078431%);fill-opacity:1;" d="M 21.578125 22.394531 C 21.597656 22.476562 21.609375 22.558594 21.609375 22.640625 C 21.609375 23.054688 21.332031 23.4375 20.910156 23.546875 C 20.410156 23.683594 19.894531 23.386719 19.757812 22.882812 L 18.175781 16.976562 C 18.042969 16.476562 18.339844 15.960938 18.84375 15.824219 C 19.34375 15.691406 19.859375 15.988281 19.996094 16.492188 Z M 21.578125 22.394531 "/>
<path style=" stroke:none;fill-rule:nonzero;fill:rgb(94.901961%,29.803922%,56.078431%);fill-opacity:1;" d="M 4.753906 15.824219 C 5.257812 15.957031 5.554688 16.476562 5.417969 16.976562 L 3.839844 22.882812 C 3.726562 23.304688 3.34375 23.582031 2.929688 23.582031 C 2.847656 23.582031 2.765625 23.570312 2.683594 23.546875 C 2.183594 23.414062 1.882812 22.898438 2.019531 22.394531 L 3.601562 16.492188 C 3.734375 15.988281 4.253906 15.691406 4.753906 15.824219 Z M 4.753906 15.824219 "/>
<path style=" stroke:none;fill-rule:nonzero;fill:rgb(0%,0%,0%);fill-opacity:1;" d="M 10.476562 4.640625 C 10.507812 4.640625 10.539062 4.636719 10.570312 4.632812 C 11.398438 4.449219 12.28125 4.425781 13.121094 4.570312 C 13.351562 4.609375 13.566406 4.457031 13.605469 4.226562 C 13.644531 4 13.492188 3.785156 13.261719 3.746094 C 12.316406 3.582031 11.324219 3.605469 10.386719 3.8125 C 10.160156 3.863281 10.019531 4.085938 10.070312 4.3125 C 10.113281 4.507812 10.285156 4.640625 10.476562 4.640625 Z M 10.476562 4.640625 "/>
<path style=" stroke:none;fill-rule:nonzero;fill:rgb(0%,0%,0%);fill-opacity:1;" d="M 16.660156 15.722656 C 15.414062 16.964844 13.757812 17.652344 12 17.652344 C 9.902344 17.652344 7.914062 16.636719 6.675781 14.941406 C 6.539062 14.753906 6.277344 14.714844 6.089844 14.851562 C 5.902344 14.988281 5.863281 15.25 6 15.4375 C 7.394531 17.347656 9.636719 18.488281 12 18.488281 C 13.984375 18.488281 15.847656 17.714844 17.25 16.3125 C 17.414062 16.148438 17.414062 15.886719 17.25 15.722656 C 17.085938 15.558594 16.820312 15.558594 16.660156 15.722656 Z M 16.660156 15.722656 "/>
<path style=" stroke:none;fill-rule:nonzero;fill:rgb(0%,0%,0%);fill-opacity:1;" d="M 20.777344 17.796875 C 22.253906 15.875 23.0625 13.492188 23.0625 11.0625 C 23.0625 4.964844 18.101562 0 12 0 C 5.898438 0 0.9375 4.964844 0.9375 11.0625 C 0.9375 13.347656 1.625 15.53125 2.925781 17.390625 L 1.613281 22.285156 C 1.519531 22.636719 1.570312 23.003906 1.75 23.320312 C 1.933594 23.632812 2.226562 23.859375 2.578125 23.953125 C 2.695312 23.984375 2.8125 24 2.929688 24 C 3.167969 24 3.398438 23.9375 3.609375 23.816406 C 3.921875 23.636719 4.148438 23.34375 4.242188 22.992188 L 5.117188 19.726562 C 7.070312 21.277344 9.488281 22.125 12 22.125 C 14.359375 22.125 16.660156 21.367188 18.546875 19.980469 L 19.355469 22.992188 C 19.449219 23.34375 19.671875 23.636719 19.988281 23.816406 C 20.199219 23.9375 20.429688 24 20.664062 24 C 20.785156 24 20.902344 23.984375 21.019531 23.953125 C 21.371094 23.859375 21.664062 23.632812 21.847656 23.320312 C 22.027344 23.003906 22.078125 22.636719 21.980469 22.285156 Z M 3.433594 22.773438 C 3.398438 22.910156 3.3125 23.023438 3.191406 23.089844 C 3.070312 23.160156 2.929688 23.179688 2.792969 23.144531 C 2.65625 23.109375 2.546875 23.019531 2.476562 22.898438 C 2.40625 22.777344 2.386719 22.636719 2.421875 22.503906 L 4.003906 16.597656 C 4.042969 16.464844 4.128906 16.351562 4.25 16.28125 C 4.328125 16.234375 4.417969 16.210938 4.507812 16.210938 C 4.554688 16.210938 4.601562 16.21875 4.644531 16.230469 C 4.78125 16.265625 4.894531 16.351562 4.964844 16.472656 C 5.03125 16.59375 5.050781 16.734375 5.015625 16.871094 Z M 12 21.289062 C 9.554688 21.289062 7.207031 20.417969 5.355469 18.835938 L 5.824219 17.085938 C 5.917969 16.734375 5.871094 16.367188 5.6875 16.054688 C 5.578125 15.863281 5.429688 15.707031 5.25 15.59375 L 6.457031 11.09375 C 6.589844 11.113281 6.726562 11.121094 6.855469 11.121094 C 7.375 11.121094 7.863281 10.980469 8.289062 10.695312 C 8.992188 10.230469 9.503906 9.417969 9.804688 8.28125 C 10.460938 5.832031 9.734375 3.582031 8.148438 3.15625 C 6.5625 2.734375 4.804688 4.316406 4.148438 6.765625 C 3.847656 7.902344 3.882812 8.859375 4.257812 9.613281 C 4.542969 10.191406 5.019531 10.621094 5.644531 10.878906 L 4.441406 15.375 C 4.226562 15.386719 4.019531 15.445312 3.832031 15.554688 C 3.539062 15.722656 3.324219 15.988281 3.21875 16.308594 C 2.273438 14.726562 1.773438 12.933594 1.773438 11.0625 C 1.773438 5.425781 6.363281 0.835938 12 0.835938 C 17.636719 0.835938 22.226562 5.425781 22.226562 11.0625 C 22.226562 13.121094 21.632812 15.070312 20.5 16.75 L 20.398438 16.382812 C 20.242188 15.796875 19.726562 15.40625 19.15625 15.375 L 18.183594 11.746094 C 18.589844 11.550781 18.929688 11.238281 19.160156 10.839844 C 19.464844 10.316406 19.542969 9.707031 19.386719 9.121094 L 18.050781 4.125 C 17.988281 3.902344 17.757812 3.769531 17.535156 3.828125 C 17.3125 3.890625 17.179688 4.117188 17.238281 4.34375 L 18.347656 8.472656 L 17.375 8.734375 L 16.269531 4.601562 C 16.207031 4.378906 15.980469 4.246094 15.753906 4.304688 C 15.53125 4.367188 15.398438 4.59375 15.460938 4.820312 L 16.566406 8.953125 L 15.59375 9.210938 L 14.488281 5.078125 C 14.429688 4.855469 14.199219 4.722656 13.976562 4.78125 C 13.75 4.84375 13.617188 5.074219 13.679688 5.296875 L 15.019531 10.292969 C 15.289062 11.300781 16.203125 11.96875 17.203125 11.96875 C 17.257812 11.96875 17.316406 11.964844 17.375 11.960938 L 18.347656 15.59375 C 18.167969 15.707031 18.015625 15.863281 17.90625 16.054688 C 17.726562 16.367188 17.675781 16.734375 17.769531 17.085938 L 18.3125 19.105469 C 16.519531 20.515625 14.289062 21.289062 12 21.289062 Z M 6.261719 10.203125 C 4.957031 9.851562 4.496094 8.710938 4.960938 6.984375 C 5.429688 5.230469 6.597656 3.925781 7.628906 3.925781 C 7.730469 3.925781 7.832031 3.941406 7.929688 3.964844 C 9.027344 4.261719 9.515625 6.136719 8.996094 8.066406 C 8.746094 8.996094 8.355469 9.648438 7.828125 9.996094 C 7.382812 10.292969 6.855469 10.363281 6.261719 10.203125 Z M 17.1875 9.652344 L 18.5625 9.285156 L 18.578125 9.339844 C 18.675781 9.707031 18.625 10.089844 18.4375 10.417969 C 18.246094 10.75 17.9375 10.984375 17.570312 11.082031 C 16.8125 11.285156 16.03125 10.835938 15.828125 10.074219 L 15.8125 10.019531 Z M 21.121094 22.898438 C 21.050781 23.019531 20.9375 23.109375 20.804688 23.144531 C 20.667969 23.179688 20.527344 23.160156 20.40625 23.089844 C 20.285156 23.023438 20.199219 22.910156 20.164062 22.773438 L 18.582031 16.871094 C 18.542969 16.734375 18.5625 16.59375 18.632812 16.472656 C 18.703125 16.351562 18.816406 16.265625 18.949219 16.230469 C 18.996094 16.21875 19.042969 16.210938 19.085938 16.210938 C 19.316406 16.210938 19.527344 16.367188 19.589844 16.597656 L 21.171875 22.503906 C 21.210938 22.636719 21.191406 22.78125 21.121094 22.898438 Z M 21.121094 22.898438 "/>
</g>
</svg>
