<?xml version="1.0" encoding="UTF-8"?>
<svg xmlns="http://www.w3.org/2000/svg" xmlns:xlink="http://www.w3.org/1999/xlink" width="32px" height="32px" viewBox="0 0 32 32" version="1.1">
<defs>
<filter id="alpha" filterUnits="objectBoundingBox" x="0%" y="0%" width="100%" height="100%">
  <feColorMatrix type="matrix" in="SourceGraphic" values="0 0 0 0 1 0 0 0 0 1 0 0 0 0 1 0 0 0 1 0"/>
</filter>
<mask id="mask0">
  <g filter="url(#alpha)">
<rect x="0" y="0" width="32" height="32" style="fill:rgb(0%,0%,0%);fill-opacity:0.996078;stroke:none;"/>
  </g>
</mask>
<clipPath id="clip1">
  <rect x="0" y="0" width="32" height="32"/>
</clipPath>
<g id="surface5" clip-path="url(#clip1)">
<path style=" stroke:none;fill-rule:evenodd;fill:rgb(11.764706%,53.333333%,89.803922%);fill-opacity:1;" d="M 14.59375 0.96875 C 19.933594 0.664062 24.320312 2.539062 27.75 6.59375 C 30.84375 10.71875 31.71875 15.28125 30.375 20.28125 C 28.71875 25.355469 25.355469 28.71875 20.28125 30.375 C 14.816406 31.816406 9.960938 30.691406 5.71875 27 C 1.871094 23.191406 0.363281 18.597656 1.1875 13.21875 C 2.316406 7.96875 5.324219 4.25 10.21875 2.0625 C 11.636719 1.5 13.09375 1.136719 14.59375 0.96875 Z M 14.59375 0.96875 "/>
</g>
</defs>
<g id="surface1">
<use xlink:href="#surface5" mask="url(#mask0)"/>
<path style=" stroke:none;fill-rule:evenodd;fill:rgb(95.686275%,95.686275%,95.686275%);fill-opacity:1;" d="M 19.71875 9.96875 C 20.039062 9.929688 20.332031 10.003906 20.59375 10.1875 C 22.574219 11.707031 24.550781 13.230469 26.53125 14.75 C 27.359375 15.558594 27.359375 16.371094 26.53125 17.1875 C 24.617188 18.621094 22.722656 20.082031 20.84375 21.5625 C 20.082031 22.191406 19.46875 22.078125 19 21.21875 C 18.96875 20.300781 18.957031 19.386719 18.96875 18.46875 C 14.675781 18.480469 10.386719 18.46875 6.09375 18.4375 C 5.609375 18.265625 5.265625 17.941406 5.0625 17.46875 C 4.992188 16.960938 4.960938 16.453125 4.96875 15.9375 C 4.960938 15.421875 4.992188 14.914062 5.0625 14.40625 C 5.289062 13.96875 5.632812 13.667969 6.09375 13.5 C 10.386719 13.46875 14.675781 13.457031 18.96875 13.46875 C 18.957031 12.53125 18.96875 11.59375 19 10.65625 C 19.152344 10.328125 19.390625 10.097656 19.71875 9.96875 Z M 19.71875 9.96875 "/>
</g>
</svg>
