<?xml version="1.0" encoding="UTF-8"?>
<svg xmlns="http://www.w3.org/2000/svg" xmlns:xlink="http://www.w3.org/1999/xlink" width="32px" height="32px" viewBox="0 0 32 32" version="1.1">
<defs>
<filter id="alpha" filterUnits="objectBoundingBox" x="0%" y="0%" width="100%" height="100%">
  <feColorMatrix type="matrix" in="SourceGraphic" values="0 0 0 0 1 0 0 0 0 1 0 0 0 0 1 0 0 0 1 0"/>
</filter>
<mask id="mask0">
  <g filter="url(#alpha)">
<rect x="0" y="0" width="32" height="32" style="fill:rgb(0%,0%,0%);fill-opacity:0.996078;stroke:none;"/>
  </g>
</mask>
<clipPath id="clip1">
  <rect x="0" y="0" width="32" height="32"/>
</clipPath>
<g id="surface5" clip-path="url(#clip1)">
<path style=" stroke:none;fill-rule:evenodd;fill:rgb(11.764706%,53.333333%,89.803922%);fill-opacity:1;" d="M 14.65625 1.96875 C 19.972656 1.675781 24.234375 3.632812 27.4375 7.84375 C 30.300781 12.203125 30.757812 16.804688 28.8125 21.65625 C 26.472656 26.492188 22.628906 29.253906 17.28125 29.9375 C 11.960938 30.261719 7.703125 28.3125 4.5 24.09375 C 1.636719 19.734375 1.179688 15.132812 3.125 10.28125 C 5.472656 5.441406 9.316406 2.671875 14.65625 1.96875 Z M 14.65625 1.96875 "/>
</g>
</defs>
<g id="surface1">
<use xlink:href="#surface5" mask="url(#mask0)"/>
<path style=" stroke:none;fill-rule:evenodd;fill:rgb(97.647059%,97.647059%,97.647059%);fill-opacity:1;" d="M 17.78125 6.46875 C 17.957031 6.453125 18.125 6.484375 18.28125 6.5625 C 20.28125 7.894531 22.28125 9.230469 24.28125 10.5625 C 24.53125 10.832031 24.53125 11.105469 24.28125 11.375 C 22.238281 12.730469 20.199219 14.082031 18.15625 15.4375 C 17.824219 15.527344 17.605469 15.414062 17.5 15.09375 C 17.46875 14.386719 17.457031 13.675781 17.46875 12.96875 C 16.800781 12.957031 16.136719 12.96875 15.46875 13 C 14.4375 13.28125 13.78125 13.9375 13.5 14.96875 C 13.480469 18.34375 13.457031 21.71875 13.4375 25.09375 C 13.421875 25.207031 13.367188 25.300781 13.28125 25.375 C 12.117188 25.476562 10.953125 25.496094 9.78125 25.4375 C 9.691406 25.410156 9.617188 25.355469 9.5625 25.28125 C 9.492188 23.484375 9.460938 21.679688 9.46875 19.875 C 9.480469 18.136719 9.488281 16.394531 9.5 14.65625 C 9.9375 12.054688 11.382812 10.273438 13.84375 9.3125 C 14.277344 9.199219 14.714844 9.09375 15.15625 9 C 15.925781 8.96875 16.699219 8.957031 17.46875 8.96875 C 17.457031 8.238281 17.46875 7.511719 17.5 6.78125 C 17.5625 6.644531 17.65625 6.539062 17.78125 6.46875 Z M 17.78125 6.46875 "/>
</g>
</svg>
