<?xml version="1.0" encoding="UTF-8"?>
<svg xmlns="http://www.w3.org/2000/svg" xmlns:xlink="http://www.w3.org/1999/xlink" width="32px" height="32px" viewBox="0 0 32 32" version="1.1">
<defs>
<filter id="alpha" filterUnits="objectBoundingBox" x="0%" y="0%" width="100%" height="100%">
  <feColorMatrix type="matrix" in="SourceGraphic" values="0 0 0 0 1 0 0 0 0 1 0 0 0 0 1 0 0 0 1 0"/>
</filter>
<mask id="mask0">
  <g filter="url(#alpha)">
<rect x="0" y="0" width="32" height="32" style="fill:rgb(0%,0%,0%);fill-opacity:0.996078;stroke:none;"/>
  </g>
</mask>
<clipPath id="clip1">
  <rect x="0" y="0" width="32" height="32"/>
</clipPath>
<g id="surface5" clip-path="url(#clip1)">
<path style=" stroke:none;fill-rule:evenodd;fill:rgb(11.764706%,53.333333%,89.803922%);fill-opacity:1;" d="M 14.65625 1.96875 C 19.972656 1.675781 24.234375 3.632812 27.4375 7.84375 C 30.300781 12.203125 30.757812 16.804688 28.8125 21.65625 C 26.472656 26.492188 22.628906 29.253906 17.28125 29.9375 C 11.960938 30.261719 7.703125 28.3125 4.5 24.09375 C 1.636719 19.734375 1.179688 15.132812 3.125 10.28125 C 5.472656 5.441406 9.316406 2.671875 14.65625 1.96875 Z M 14.65625 1.96875 "/>
</g>
</defs>
<g id="surface1">
<use xlink:href="#surface5" mask="url(#mask0)"/>
<path style=" stroke:none;fill-rule:evenodd;fill:rgb(97.647059%,97.647059%,97.647059%);fill-opacity:1;" d="M 13.78125 6.46875 C 14.070312 6.4375 14.289062 6.539062 14.4375 6.78125 C 14.46875 7.511719 14.480469 8.238281 14.46875 8.96875 C 16.519531 8.707031 18.371094 9.175781 20.03125 10.375 C 21.363281 11.503906 22.164062 12.929688 22.4375 14.65625 C 22.449219 16.394531 22.457031 18.136719 22.46875 19.875 C 22.476562 21.679688 22.445312 23.484375 22.375 25.28125 C 22.300781 25.367188 22.207031 25.421875 22.09375 25.4375 C 20.941406 25.5 19.796875 25.476562 18.65625 25.375 C 18.570312 25.300781 18.515625 25.207031 18.5 25.09375 C 18.5 21.632812 18.457031 18.175781 18.375 14.71875 C 18.015625 13.734375 17.316406 13.160156 16.28125 13 C 15.675781 12.96875 15.074219 12.957031 14.46875 12.96875 C 14.480469 13.675781 14.46875 14.386719 14.4375 15.09375 C 14.332031 15.414062 14.113281 15.527344 13.78125 15.4375 C 11.738281 14.082031 9.699219 12.730469 7.65625 11.375 C 7.40625 11.105469 7.40625 10.832031 7.65625 10.5625 C 9.710938 9.210938 11.753906 7.847656 13.78125 6.46875 Z M 13.78125 6.46875 "/>
</g>
</svg>
