<?xml version="1.0" encoding="UTF-8"?>
<svg xmlns="http://www.w3.org/2000/svg" xmlns:xlink="http://www.w3.org/1999/xlink" width="32px" height="32px" viewBox="0 0 32 32" version="1.1">
<defs>
<filter id="alpha" filterUnits="objectBoundingBox" x="0%" y="0%" width="100%" height="100%">
  <feColorMatrix type="matrix" in="SourceGraphic" values="0 0 0 0 1 0 0 0 0 1 0 0 0 0 1 0 0 0 1 0"/>
</filter>
<mask id="mask0">
  <g filter="url(#alpha)">
<rect x="0" y="0" width="32" height="32" style="fill:rgb(0%,0%,0%);fill-opacity:0.976471;stroke:none;"/>
  </g>
</mask>
<clipPath id="clip1">
  <rect x="0" y="0" width="32" height="32"/>
</clipPath>
<g id="surface5" clip-path="url(#clip1)">
<path style=" stroke:none;fill-rule:evenodd;fill:rgb(99.607843%,99.607843%,99.607843%);fill-opacity:1;" d="M 15.90625 2.46875 C 20.585938 2.605469 24.304688 4.542969 27.0625 8.28125 C 29.730469 12.4375 30.148438 16.8125 28.3125 21.40625 C 25.800781 26.511719 21.683594 29.199219 15.96875 29.46875 C 10.253906 29.199219 6.136719 26.511719 3.625 21.40625 C 1.789062 16.8125 2.207031 12.4375 4.875 8.28125 C 7.605469 4.578125 11.285156 2.640625 15.90625 2.46875 Z M 15.90625 2.46875 "/>
</g>
</defs>
<g id="surface1">
<use xlink:href="#surface5" mask="url(#mask0)"/>
<path style=" stroke:none;fill-rule:evenodd;fill:rgb(12.156863%,52.941176%,89.411765%);fill-opacity:1;" d="M 14.59375 4.15625 C 19.773438 3.835938 23.703125 5.875 26.375 10.28125 C 27.898438 13.175781 28.210938 16.195312 27.3125 19.34375 C 26.351562 22.429688 24.464844 24.773438 21.65625 26.375 C 18.742188 27.898438 15.699219 28.210938 12.53125 27.3125 C 9.480469 26.324219 7.15625 24.4375 5.5625 21.65625 C 3.898438 18.34375 3.710938 14.945312 5 11.46875 C 6.890625 7.316406 10.089844 4.878906 14.59375 4.15625 Z M 14.59375 4.15625 "/>
<path style=" stroke:none;fill-rule:evenodd;fill:rgb(99.607843%,99.607843%,99.607843%);fill-opacity:1;" d="M 20.09375 13.28125 C 19.425781 13.28125 18.761719 13.28125 18.09375 13.28125 C 18.09375 17.363281 18.09375 21.449219 18.09375 25.53125 C 16.824219 25.53125 15.550781 25.53125 14.28125 25.53125 C 14.28125 21.449219 14.28125 17.363281 14.28125 13.28125 C 13.574219 13.28125 12.863281 13.28125 12.15625 13.28125 C 13.460938 10.980469 14.785156 8.6875 16.125 6.40625 C 17.464844 8.6875 18.789062 10.980469 20.09375 13.28125 Z M 20.09375 13.28125 "/>
<path style=" stroke:none;fill-rule:evenodd;fill:rgb(30.980392%,40.392157%,71.372549%);fill-opacity:1;" d="M 12.15625 13.28125 C 12.863281 13.28125 13.574219 13.28125 14.28125 13.28125 C 14.28125 17.363281 14.28125 21.449219 14.28125 25.53125 C 14.21875 21.480469 14.199219 17.417969 14.21875 13.34375 C 13.519531 13.363281 12.832031 13.34375 12.15625 13.28125 Z M 12.15625 13.28125 "/>
<path style=" stroke:none;fill-rule:evenodd;fill:rgb(42.745098%,50.588235%,76.078431%);fill-opacity:1;" d="M 20.09375 13.28125 C 19.460938 13.34375 18.8125 13.363281 18.15625 13.34375 C 18.15625 17.425781 18.15625 21.511719 18.15625 25.59375 C 16.855469 25.613281 15.5625 25.59375 14.28125 25.53125 C 15.550781 25.53125 16.824219 25.53125 18.09375 25.53125 C 18.09375 21.449219 18.09375 17.363281 18.09375 13.28125 C 18.761719 13.28125 19.425781 13.28125 20.09375 13.28125 Z M 20.09375 13.28125 "/>
</g>
</svg>
