<?xml version="1.0" encoding="UTF-8"?>
<svg xmlns="http://www.w3.org/2000/svg" xmlns:xlink="http://www.w3.org/1999/xlink" width="32px" height="32px" viewBox="0 0 32 32" version="1.1">
<g id="surface1">
<path style=" stroke:none;fill-rule:evenodd;fill:rgb(11.764706%,53.333333%,89.803922%);fill-opacity:1;" d="M 3.90625 1.96875 C 11.949219 1.957031 19.988281 1.96875 28.03125 2 C 29.042969 2.261719 29.675781 2.894531 29.9375 3.90625 C 29.980469 11.949219 29.980469 19.988281 29.9375 28.03125 C 29.675781 29.042969 29.042969 29.675781 28.03125 29.9375 C 19.988281 29.980469 11.949219 29.980469 3.90625 29.9375 C 2.894531 29.675781 2.261719 29.042969 2 28.03125 C 1.957031 19.988281 1.957031 11.949219 2 3.90625 C 2.273438 2.894531 2.90625 2.25 3.90625 1.96875 Z M 3.90625 1.96875 "/>
<path style=" stroke:none;fill-rule:evenodd;fill:rgb(97.647059%,97.647059%,97.647059%);fill-opacity:1;" d="M 14.03125 4.96875 C 17.234375 4.769531 19.828125 5.914062 21.8125 8.40625 C 22.625 9.507812 23.144531 10.738281 23.375 12.09375 C 23.464844 13.714844 23.496094 15.339844 23.46875 16.96875 C 24.078125 16.941406 24.683594 16.972656 25.28125 17.0625 C 25.449219 17.226562 25.5 17.425781 25.4375 17.65625 C 24.25 19.738281 23.03125 21.800781 21.78125 23.84375 C 21.570312 24.003906 21.359375 24.003906 21.15625 23.84375 C 19.90625 21.800781 18.6875 19.738281 17.5 17.65625 C 17.414062 17.359375 17.507812 17.140625 17.78125 17 C 18.34375 16.96875 18.90625 16.957031 19.46875 16.96875 C 19.496094 15.464844 19.464844 13.964844 19.375 12.46875 C 18.585938 9.984375 16.890625 8.828125 14.28125 9 C 12.53125 9.355469 11.332031 10.363281 10.6875 12.03125 C 10.605469 12.277344 10.542969 12.527344 10.5 12.78125 C 10.480469 17.386719 10.457031 21.988281 10.4375 26.59375 C 10.40625 26.792969 10.292969 26.90625 10.09375 26.9375 C 8.988281 26.980469 7.886719 26.980469 6.78125 26.9375 C 6.691406 26.910156 6.617188 26.855469 6.5625 26.78125 C 6.457031 22.035156 6.4375 17.285156 6.5 12.53125 C 7.273438 8.269531 9.78125 5.75 14.03125 4.96875 Z M 14.03125 4.96875 "/>
</g>
</svg>
